<svg width="153" height="32" viewBox="0 0 153 32" fill="none" xmlns="http://www.w3.org/2000/svg">
<path d="M21.8917 17.6247H4.76941V11.2493C4.76941 9.87081 4.99771 8.73029 5.4543 7.82773C5.91089 6.92517 6.53872 6.25235 7.33776 5.80927C8.13679 5.36619 9.03368 5.14465 10.0284 5.14465C10.9742 5.14465 11.8466 5.35798 12.6457 5.78465C13.4284 6.21132 14.0644 6.87594 14.5536 7.7785C15.0265 8.68106 15.2629 9.83798 15.2629 11.2493V14.4739H21.8917V17.6247ZM12.7191 14.4739V11.4462C12.7191 10.3467 12.4826 9.55902 12.0097 9.08311C11.5205 8.59081 10.8601 8.34465 10.0284 8.34465C9.18045 8.34465 8.52001 8.59081 8.04711 9.08311C7.5579 9.55902 7.31329 10.3467 7.31329 11.4462V14.4739H12.7191Z" fill="#2D70FD"/>
<path d="M12.3535 14.4738H29.4758V20.8492C29.4758 22.2277 29.2474 23.3682 28.7909 24.2707C28.3343 25.1733 27.7064 25.8461 26.9074 26.2892C26.1084 26.7323 25.2114 26.9538 24.2168 26.9538C23.271 26.9538 22.3985 26.7405 21.5995 26.3138C20.8168 25.8871 20.1808 25.2225 19.6916 24.32C19.2186 23.4174 18.9822 22.2605 18.9822 20.8492V17.6246H12.3535V14.4738ZM21.5261 17.6246V20.6523C21.5261 21.7517 21.7625 22.5394 22.2355 23.0154C22.7247 23.5077 23.3851 23.7538 24.2168 23.7538C25.0647 23.7538 25.7251 23.5077 26.1981 23.0154C26.6873 22.5394 26.9319 21.7517 26.9319 20.6523V17.6246H21.5261Z" fill="#2D70FD"/>
<path d="M10.0292 26.9539C11.5152 26.9539 12.7199 25.7417 12.7199 24.2462C12.7199 22.7508 11.5152 21.5385 10.0292 21.5385C8.54321 21.5385 7.33856 22.7508 7.33856 24.2462C7.33856 25.7417 8.54321 26.9539 10.0292 26.9539Z" fill="#FFD166"/>
<path d="M24.2143 10.5847C25.7003 10.5847 26.905 9.37239 26.905 7.87697C26.905 6.38156 25.7003 5.16928 24.2143 5.16928C22.7283 5.16928 21.5237 6.38156 21.5237 7.87697C21.5237 9.37239 22.7283 10.5847 24.2143 10.5847Z" fill="#00D8A7"/>
<path d="M40.6786 24.3693V7.13852H47.0138C48.3836 7.13852 49.517 7.36827 50.4138 7.82775C51.3107 8.28723 51.9793 8.91903 52.4196 9.72313C52.8599 10.5272 53.08 11.4298 53.08 12.4308C53.08 13.3826 52.8681 14.2606 52.4441 15.0647C52.02 15.8524 51.3596 16.4924 50.4628 16.9847C49.5659 17.4606 48.4163 17.6985 47.0138 17.6985H43.8095V24.3693H40.6786ZM43.8095 15.1385H46.8182C47.9107 15.1385 48.6934 14.9006 49.1664 14.4247C49.6556 13.9324 49.9002 13.2677 49.9002 12.4308C49.9002 11.5775 49.6556 10.9129 49.1664 10.437C48.6934 9.94467 47.9107 9.69852 46.8182 9.69852H43.8095V15.1385ZM54.8514 24.3693V12.1601H57.6399L57.9335 14.4493C58.3737 13.6616 58.969 13.038 59.7191 12.5785C60.4855 12.1026 61.3824 11.8647 62.4097 11.8647V15.1877H61.5291C60.8443 15.1877 60.2327 15.2945 59.6946 15.5077C59.1565 15.721 58.7326 16.0903 58.4227 16.6154C58.1291 17.1406 57.9824 17.8708 57.9824 18.8062V24.3693H54.8514ZM69.5447 24.6647C68.3706 24.6647 67.3107 24.3939 66.3648 23.8524C65.4354 23.3108 64.6935 22.5641 64.1389 21.6124C63.6008 20.6441 63.3318 19.5283 63.3318 18.2647C63.3318 17.001 63.609 15.8933 64.1634 14.9416C64.7179 13.9733 65.4598 13.2185 66.3893 12.677C67.3352 12.1354 68.3951 11.8647 69.5692 11.8647C70.727 11.8647 71.7706 12.1354 72.7001 12.677C73.646 13.2185 74.3879 13.9733 74.926 14.9416C75.4805 15.8933 75.7577 17.001 75.7577 18.2647C75.7577 19.5283 75.4805 20.6441 74.926 21.6124C74.3879 22.5641 73.646 23.3108 72.7001 23.8524C71.7543 24.3939 70.7025 24.6647 69.5447 24.6647ZM69.5447 21.9324C70.3601 21.9324 71.0694 21.6287 71.6728 21.0216C72.2762 20.398 72.5778 19.4791 72.5778 18.2647C72.5778 17.0503 72.2762 16.1395 71.6728 15.5324C71.0694 14.9087 70.3683 14.597 69.5692 14.597C68.7375 14.597 68.0201 14.9087 67.4167 15.5324C66.8296 16.1395 66.5361 17.0503 66.5361 18.2647C66.5361 19.4791 66.8296 20.398 67.4167 21.0216C68.0201 21.6287 68.7294 21.9324 69.5447 21.9324ZM83.5226 24.6647C82.3811 24.6647 81.3619 24.3857 80.4651 23.8278C79.5681 23.2698 78.8587 22.5068 78.337 21.5385C77.8151 20.5703 77.5543 19.4708 77.5543 18.2401C77.5543 17.0093 77.8151 15.918 78.337 14.9662C78.8587 13.998 79.5681 13.2431 80.4651 12.7016C81.3619 12.1437 82.3811 11.8647 83.5226 11.8647C84.4357 11.8647 85.2348 12.037 85.9197 12.3816C86.6046 12.7262 87.159 13.2103 87.583 13.8339V6.64621H90.714V24.3693H87.9255L87.583 22.6216C87.1917 23.1631 86.6698 23.6391 86.0176 24.0493C85.3816 24.4595 84.55 24.6647 83.5226 24.6647ZM84.183 21.9078C85.194 21.9078 86.0176 21.5714 86.6536 20.8985C87.3058 20.2093 87.632 19.3314 87.632 18.2647C87.632 17.198 87.3058 16.3283 86.6536 15.6554C86.0176 14.9662 85.194 14.6216 84.183 14.6216C83.1882 14.6216 82.3648 14.958 81.7125 15.6308C81.0602 16.3037 80.7341 17.1733 80.7341 18.2401C80.7341 19.3068 81.0602 20.1847 81.7125 20.8739C82.3648 21.5631 83.1882 21.9078 84.183 21.9078ZM97.8403 24.6647C96.3237 24.6647 95.1496 24.1887 94.318 23.237C93.5027 22.2852 93.095 20.8903 93.095 19.0524V12.1601H96.2014V18.757C96.2014 19.8072 96.4135 20.6114 96.8374 21.1693C97.2614 21.7272 97.9301 22.0062 98.8432 22.0062C99.7075 22.0062 100.417 21.6945 100.971 21.0708C101.542 20.4472 101.827 19.5775 101.827 18.4616V12.1601H104.958V24.3693H102.194L101.95 22.3016C101.575 23.0237 101.028 23.598 100.311 24.0247C99.6096 24.4514 98.7862 24.6647 97.8403 24.6647ZM113.505 24.6647C112.265 24.6647 111.173 24.3939 110.227 23.8524C109.281 23.3108 108.531 22.556 107.977 21.5877C107.439 20.6195 107.169 19.5118 107.169 18.2647C107.169 17.0175 107.439 15.9098 107.977 14.9416C108.531 13.9733 109.281 13.2185 110.227 12.677C111.173 12.1354 112.265 11.8647 113.505 11.8647C115.054 11.8647 116.358 12.2749 117.418 13.0954C118.478 13.8995 119.155 15.0154 119.449 16.4431H116.146C115.983 15.8524 115.657 15.3929 115.168 15.0647C114.695 14.7201 114.133 14.5477 113.48 14.5477C112.616 14.5477 111.882 14.876 111.279 15.5324C110.676 16.1887 110.374 17.0995 110.374 18.2647C110.374 19.4298 110.676 20.3406 111.279 20.997C111.882 21.6534 112.616 21.9816 113.48 21.9816C114.133 21.9816 114.695 21.8175 115.168 21.4893C115.657 21.161 115.983 20.6933 116.146 20.0862H119.449C119.155 21.4647 118.478 22.5724 117.418 23.4093C116.358 24.2462 115.054 24.6647 113.505 24.6647ZM126.855 24.3693C125.583 24.3693 124.563 24.0575 123.798 23.4339C123.031 22.8103 122.648 21.7026 122.648 20.1108V14.7939H120.568V12.1601H122.648L123.015 8.88621H125.779V12.1601H129.057V14.7939H125.779V20.1354C125.779 20.7262 125.901 21.1364 126.146 21.3662C126.406 21.5795 126.847 21.6862 127.467 21.6862H128.983V24.3693H126.855ZM136.718 24.6647C135.495 24.6647 134.41 24.4022 133.464 23.877C132.518 23.3518 131.777 22.6133 131.238 21.6616C130.7 20.7098 130.431 19.6103 130.431 18.3631C130.431 17.0995 130.692 15.9754 131.214 14.9908C131.752 14.0062 132.486 13.2431 133.415 12.7016C134.361 12.1437 135.47 11.8647 136.742 11.8647C137.932 11.8647 138.984 12.1272 139.897 12.6524C140.81 13.1775 141.519 13.8995 142.025 14.8185C142.546 15.721 142.808 16.7303 142.808 17.8462C142.808 18.0268 142.8 18.2154 142.784 18.4124C142.784 18.6093 142.775 18.8145 142.759 19.0278H133.538C133.603 19.9795 133.929 20.7262 134.516 21.2678C135.119 21.8093 135.844 22.0801 136.693 22.0801C137.329 22.0801 137.859 21.9406 138.283 21.6616C138.723 21.3662 139.049 20.9887 139.261 20.5293H142.441C142.213 21.3006 141.83 22.0062 141.292 22.6462C140.769 23.2698 140.118 23.7621 139.335 24.1231C138.568 24.4841 137.696 24.6647 136.718 24.6647ZM136.742 14.4247C135.975 14.4247 135.299 14.6462 134.712 15.0893C134.125 15.516 133.749 16.1724 133.587 17.0585H139.628C139.579 16.2545 139.286 15.6145 138.748 15.1385C138.21 14.6626 137.541 14.4247 136.742 14.4247ZM144.83 24.3693V12.1601H147.618L147.912 14.4493C148.352 13.6616 148.947 13.038 149.697 12.5785C150.463 12.1026 151.361 11.8647 152.388 11.8647V15.1877H151.508C150.823 15.1877 150.211 15.2945 149.673 15.5077C149.135 15.721 148.711 16.0903 148.401 16.6154C148.108 17.1406 147.961 17.8708 147.961 18.8062V24.3693H144.83Z" fill="#2D70FD"/>
</svg>
